<?xml version="1.0" encoding="UTF-8"?>
<svg id="Layer_1" data-name="Layer 1" xmlns="http://www.w3.org/2000/svg" viewBox="0 0 1122 754.15">
  <defs>
    <style>
      .cls-1 {
        fill: #be2b36;
      }

      .cls-2 {
        fill: #5f6266;
      }
    </style>
  </defs>
  <g>
    <path class="cls-2" d="M85.9,450.47v135.06h78.21c4.51,0,8.34,1.59,11.5,4.78,3.15,3.18,4.74,7.05,4.74,11.6v15.83H67.77c-4.69,0-8.57-1.58-11.64-4.74-3.07-3.15-4.6-6.99-4.6-11.5v-167.24h18.13c4.69,0,8.57,1.53,11.64,4.59,3.07,3.06,4.6,6.93,4.6,11.62Z"/>
    <path class="cls-2" d="M241.77,452.12c0,6.32-1.94,11.01-5.82,14.07-3.88,3.07-8.21,4.6-12.99,4.6s-9.11-1.53-12.99-4.6c-3.88-3.07-5.82-7.75-5.82-14.07s1.94-11.05,5.82-14.21c3.88-3.15,8.21-4.74,12.99-4.74s9.11,1.58,12.99,4.74c3.88,3.16,5.82,7.89,5.82,14.21Zm-34.64,35.72v113.66c0,4.51,1.58,8.35,4.74,11.5,3.15,3.16,6.99,4.74,11.5,4.74h15.7v-113.66c0-4.51-1.58-8.34-4.74-11.5-3.16-3.15-6.99-4.74-11.5-4.74h-15.7Z"/>
    <path class="cls-2" d="M368.95,617.73c-4.51,0-8.3-1.58-11.37-4.74-3.07-3.15-4.6-6.9-4.6-11.23v-53.31c0-4.33-.54-8.43-1.62-12.31-1.08-3.88-2.75-7.31-5.01-10.28-2.26-2.98-5.05-5.37-8.39-7.17-3.34-1.8-7.17-2.71-11.5-2.71s-8.21,.91-11.64,2.71c-3.43,1.8-6.32,4.19-8.66,7.17-2.35,2.98-4.15,6.41-5.41,10.28-1.26,3.88-1.89,7.98-1.89,12.31v53.04c0,4.51-1.58,8.35-4.74,11.5-3.16,3.16-6.99,4.74-11.5,4.74h-15.7v-129.62h16.24c4.33,0,8.02,1.54,11.09,4.6,3.07,3.07,4.6,6.77,4.6,11.09,3.43-6.49,8.43-11.09,15.02-13.8,6.58-2.71,12.94-4.06,19.08-4.06,7.75,0,15.2,1.85,22.33,5.55,7.12,3.7,12.49,9.97,16.1,18.81,5.77-9.2,12.27-15.47,19.48-18.81,7.21-3.34,15.15-5.01,23.81-5.01,18.4,0,32.11,5.37,41.13,16.1,9.02,10.74,13.53,25.84,13.53,45.33v69.82h-15.7c-4.51,0-8.35-1.58-11.5-4.74-3.16-3.15-4.74-6.99-4.74-11.5v-53.58c0-4.33-.45-8.39-1.35-12.18-.91-3.79-2.35-7.08-4.33-9.88-1.99-2.79-4.51-5.05-7.58-6.77-3.07-1.71-6.77-2.57-11.09-2.57s-8.25,.86-11.77,2.57c-3.52,1.72-6.5,4.06-8.93,7.04-2.44,2.98-4.29,6.36-5.55,10.15-1.26,3.79-1.89,7.85-1.89,12.18v53.31c0,4.33-1.54,8.08-4.6,11.23-3.07,3.16-6.86,4.74-11.37,4.74Z"/>
    <path class="cls-2" d="M530.24,561.18c1.08,8.3,4.82,15.11,11.23,20.43,6.4,5.32,15.38,7.98,26.93,7.98,8.66,0,17.14-2.07,25.44-6.22,3.07-1.44,6.31-1.89,9.74-1.35,3.42,.54,6.4,2.08,8.93,4.6l11.37,11.1c-7.04,7.4-15.61,12.85-25.71,16.37-10.11,3.52-20.21,5.28-30.31,5.28-11.37,0-21.51-1.67-30.44-5.01-8.93-3.34-16.42-8.12-22.46-14.34-6.05-6.22-10.65-13.67-13.8-22.33-3.16-8.66-4.74-18.31-4.74-28.96s1.58-19.39,4.74-27.87c3.15-8.48,7.71-15.78,13.67-21.92,5.95-6.13,13.17-10.91,21.65-14.34,8.48-3.43,18.13-5.14,28.96-5.14s20.88,1.72,29.63,5.14c8.75,3.43,16.01,8.52,21.78,15.29,5.77,6.77,9.97,15.29,12.58,25.57,2.61,10.28,3.29,22.19,2.03,35.72h-101.21Zm69.55-27.06c-.91-8.66-4.33-15.11-10.28-19.35-5.95-4.24-13.62-6.36-23-6.36-8.84,0-16.37,2.12-22.6,6.36-6.22,4.24-10.6,10.69-13.12,19.35h69.01Z"/>
    <path class="cls-2" d="M768.1,617.73c-4.69,0-8.57-1.58-11.64-4.74-3.07-3.15-4.6-6.99-4.6-11.5v-51.42c0-9.92-2.66-18.17-7.98-24.76-5.32-6.58-13.12-9.88-23.41-9.88-4.87,0-9.34,.95-13.4,2.84s-7.53,4.51-10.42,7.85c-2.89,3.34-5.14,7.22-6.77,11.64-1.62,4.42-2.44,9.06-2.44,13.94v49.79c0,4.51-1.58,8.35-4.74,11.5-3.16,3.16-6.99,4.74-11.5,4.74h-15.43v-129.62h14.34c4.51,0,8.34,1.58,11.5,4.74,3.15,3.16,4.74,6.99,4.74,11.5v1.35c6.67-6.31,13.4-11.14,20.16-14.48,6.77-3.34,14.21-5.01,22.33-5.01,7.58,0,14.7,1.4,21.38,4.19,6.67,2.8,12.49,6.9,17.45,12.31,4.96,5.41,8.88,12.09,11.77,20.03,2.88,7.94,4.33,16.96,4.33,27.06v67.92h-15.7Z"/>
    <path class="cls-2" d="M912.61,496.5v7.04l-59.53,82.81h43.57c4.69,0,8.57,1.53,11.64,4.6,3.07,3.07,4.6,6.95,4.6,11.64v15.15h-100.67c-2.16,0-4.06-.81-5.68-2.44-1.62-1.62-2.44-3.52-2.44-5.68v-5.41l61.97-86.6h-40.86c-4.51,0-8.35-1.58-11.5-4.74-3.16-3.15-4.74-6.99-4.74-11.5v-12.99h95.53c2.17,0,4.06,.81,5.68,2.44,1.62,1.62,2.44,3.52,2.44,5.68Z"/>
    <path class="cls-2" d="M1062.53,488.38l-86.51,200.97c-1.27,3.07-3.25,5.45-5.95,7.17-2.71,1.71-5.68,2.57-8.93,2.57h-24.36l35.9-83.52-51.69-127.19h25.71c3.61,0,6.77,.99,9.47,2.98,2.71,1.99,4.69,4.6,5.95,7.85l29.23,81.45,31.66-82.27c1.26-3.07,3.25-5.5,5.95-7.31,2.71-1.8,5.68-2.71,8.93-2.71h24.63Z"/>
  </g>
  <g>
    <path class="cls-2" d="M245.59,654.91h-15.1v-5.44h36.74v5.44h-15.16v44.18h-6.48v-44.18Z"/>
    <path class="cls-2" d="M274.68,682.45c.15,8.76,5.74,12.37,12.23,12.37,4.64,0,7.43-.81,9.87-1.84l1.1,4.64c-2.28,1.03-6.18,2.21-11.85,2.21-10.97,0-17.52-7.22-17.52-17.97s6.33-19.22,16.71-19.22c11.64,0,14.73,10.24,14.73,16.79,0,1.33-.15,2.36-.22,3.02h-25.04Zm19-4.64c.07-4.13-1.69-10.53-8.98-10.53-6.55,0-9.42,6.03-9.94,10.53h18.92Z"/>
    <path class="cls-2" d="M337.06,697.76c-1.69,.88-5.45,2.06-10.24,2.06-10.75,0-17.74-7.29-17.74-18.19s7.51-18.92,19.14-18.92c3.83,0,7.22,.96,8.98,1.84l-1.47,5.01c-1.55-.88-3.98-1.69-7.51-1.69-8.17,0-12.59,6.03-12.59,13.47,0,8.25,5.3,13.33,12.37,13.33,3.68,0,6.11-.96,7.95-1.77l1.11,4.86Z"/>
    <path class="cls-2" d="M348.34,646.81h6.48v22.24h.15c1.03-1.84,2.65-3.46,4.64-4.57,1.92-1.1,4.2-1.84,6.63-1.84,4.79,0,12.44,2.94,12.44,15.24v21.21h-6.48v-20.47c0-5.74-2.14-10.6-8.25-10.6-4.2,0-7.51,2.94-8.69,6.48-.37,.88-.44,1.84-.44,3.1v21.5h-6.48v-52.28Z"/>
    <path class="cls-2" d="M392.89,673.1c0-3.69-.07-6.7-.29-9.65h5.74l.37,5.89h.15c1.76-3.39,5.89-6.7,11.78-6.7,4.93,0,12.59,2.94,12.59,15.17v21.28h-6.48v-20.55c0-5.74-2.13-10.53-8.25-10.53-4.27,0-7.59,3.02-8.69,6.62-.29,.81-.44,1.92-.44,3.02v21.42h-6.48v-25.99Z"/>
    <path class="cls-2" d="M469.63,680.98c0,13.18-9.13,18.92-17.74,18.92-9.65,0-17.08-7.07-17.08-18.33,0-11.93,7.8-18.92,17.67-18.92s17.15,7.43,17.15,18.33Zm-28.27,.37c0,7.8,4.49,13.7,10.83,13.7s10.83-5.82,10.83-13.84c0-6.04-3.02-13.7-10.68-13.7s-10.97,7.07-10.97,13.84Z"/>
    <path class="cls-2" d="M481.5,646.81h6.48v52.28h-6.48v-52.28Z"/>
    <path class="cls-2" d="M534.81,680.98c0,13.18-9.13,18.92-17.74,18.92-9.65,0-17.08-7.07-17.08-18.33,0-11.93,7.8-18.92,17.67-18.92s17.15,7.43,17.15,18.33Zm-28.27,.37c0,7.8,4.49,13.7,10.83,13.7s10.83-5.82,10.83-13.84c0-6.04-3.02-13.7-10.68-13.7s-10.97,7.07-10.97,13.84Z"/>
    <path class="cls-2" d="M577.38,663.46c-.15,2.57-.29,5.44-.29,9.79v20.69c0,8.17-1.62,13.18-5.08,16.27-3.46,3.24-8.47,4.27-12.96,4.27s-8.98-1.03-11.85-2.95l1.62-4.93c2.35,1.47,6.03,2.8,10.45,2.8,6.63,0,11.49-3.46,11.49-12.45v-3.98h-.15c-1.99,3.32-5.82,5.97-11.34,5.97-8.84,0-15.16-7.51-15.16-17.38,0-12.08,7.88-18.92,16.05-18.92,6.19,0,9.57,3.24,11.12,6.18h.15l.29-5.37h5.67Zm-6.7,14.06c0-1.11-.07-2.06-.37-2.95-1.18-3.75-4.34-6.85-9.06-6.85-6.19,0-10.6,5.23-10.6,13.47,0,6.99,3.54,12.81,10.53,12.81,3.98,0,7.58-2.5,8.98-6.63,.37-1.1,.52-2.35,.52-3.46v-6.4Z"/>
    <path class="cls-2" d="M598.3,653.44c.07,2.21-1.55,3.98-4.12,3.98-2.28,0-3.9-1.77-3.9-3.98s1.69-4.05,4.05-4.05,3.98,1.76,3.98,4.05Zm-7.21,45.65v-35.64h6.48v35.64h-6.48Z"/>
    <path class="cls-2" d="M615.61,682.45c.15,8.76,5.74,12.37,12.23,12.37,4.64,0,7.43-.81,9.86-1.84l1.11,4.64c-2.28,1.03-6.19,2.21-11.85,2.21-10.97,0-17.53-7.22-17.53-17.97s6.33-19.22,16.72-19.22c11.63,0,14.73,10.24,14.73,16.79,0,1.33-.15,2.36-.22,3.02h-25.04Zm19-4.64c.07-4.13-1.7-10.53-8.98-10.53-6.56,0-9.42,6.03-9.94,10.53h18.92Z"/>
    <path class="cls-2" d="M651.7,692.46c1.92,1.25,5.3,2.58,8.54,2.58,4.71,0,6.92-2.36,6.92-5.3,0-3.09-1.84-4.79-6.63-6.56-6.4-2.28-9.42-5.81-9.42-10.08,0-5.74,4.64-10.46,12.3-10.46,3.61,0,6.77,1.03,8.76,2.21l-1.62,4.71c-1.4-.88-3.98-2.06-7.29-2.06-3.83,0-5.97,2.21-5.97,4.86,0,2.94,2.13,4.27,6.77,6.03,6.19,2.36,9.35,5.45,9.35,10.75,0,6.26-4.86,10.68-13.33,10.68-3.9,0-7.51-.96-10.01-2.43l1.62-4.93Z"/>
    <path class="cls-2" d="M697.58,650.05c3.09-.51,7.14-.95,12.29-.95,6.33,0,10.97,1.47,13.92,4.12,2.73,2.35,4.34,5.96,4.34,10.38s-1.32,8.02-3.83,10.6c-3.39,3.61-8.91,5.45-15.17,5.45-1.91,0-3.68-.07-5.15-.44v19.88h-6.4v-49.04Zm6.4,23.93c1.4,.37,3.17,.52,5.3,.52,7.73,0,12.45-3.75,12.45-10.6s-4.64-9.71-11.71-9.71c-2.8,0-4.93,.22-6.04,.51v19.29Z"/>
    <path class="cls-2" d="M739.04,663.46l7,20.02c1.18,3.24,2.13,6.19,2.87,9.13h.22c.81-2.94,1.84-5.89,3.02-9.13l6.92-20.02h6.78l-13.99,35.64h-6.19l-13.55-35.64h6.92Z"/>
    <path class="cls-2" d="M779.77,653.22v10.24h9.28v4.93h-9.28v19.21c0,4.42,1.25,6.92,4.86,6.92,1.7,0,2.95-.22,3.75-.44l.29,4.86c-1.25,.52-3.24,.88-5.74,.88-3.02,0-5.45-.96-7-2.73-1.84-1.91-2.5-5.08-2.5-9.28v-19.43h-5.52v-4.93h5.52v-8.55l6.33-1.69Z"/>
    <path class="cls-2" d="M812.18,649.47h6.4v44.25h21.21v5.38h-27.61v-49.63Z"/>
    <path class="cls-2" d="M854.53,653.22v10.24h9.28v4.93h-9.28v19.21c0,4.42,1.25,6.92,4.86,6.92,1.7,0,2.95-.22,3.75-.44l.29,4.86c-1.25,.52-3.24,.88-5.74,.88-3.02,0-5.45-.96-7-2.73-1.84-1.91-2.5-5.08-2.5-9.28v-19.43h-5.52v-4.93h5.52v-8.55l6.33-1.69Z"/>
    <path class="cls-2" d="M901.88,646.81v43.08c0,3.16,.07,6.78,.29,9.2h-5.82l-.29-6.19h-.15c-1.99,3.98-6.33,7-12.15,7-8.61,0-15.24-7.29-15.24-18.11-.07-11.86,7.29-19.14,15.98-19.14,5.45,0,9.13,2.57,10.75,5.45h.15v-21.28h6.48Zm-6.48,31.14c0-.81-.07-1.91-.29-2.72-.96-4.12-4.49-7.51-9.35-7.51-6.7,0-10.68,5.89-10.68,13.77,0,7.21,3.53,13.18,10.53,13.18,4.34,0,8.32-2.87,9.5-7.73,.22-.88,.29-1.77,.29-2.8v-6.19Z"/>
  </g>
  <g>
    <g>
      <path class="cls-2" d="M429.78,165.14c8.28-7.74,22.63-22.83,8.81-41.05-8.06-10.61-26.61-11.25-36.15-3.44-27.16,22.25-102.55,98.67-102.55,98.67-4.52,4.36-7.22,9.08-8.03,13.88h63.5l74.42-68.06Z"/>
      <path class="cls-2" d="M299.9,252.64l104.69,99.91c16.55,12.53,32.26,4.64,38.15-6.19,8.96-16.52-2.17-31.29-13.67-40.29l-73.19-67.86h-64.18c.61,4.94,3.23,9.85,8.2,14.43Z"/>
    </g>
    <g>
      <path class="cls-2" d="M700.57,295.04c-9.64,7.55-18.99,19.91-11.44,33.76,4.94,9.05,18.03,15.67,31.91,5.22l87.8-83.78c4.16-3.8,6.28-7.89,6.75-12.02h-46.01l-69.01,56.82Z"/>
      <path class="cls-2" d="M700.5,176.29c-9.64-7.55-18.99-19.91-11.44-33.76,4.87-8.92,18.74-14.41,31.31-5.66,.4,.28,.78,.61,1.14,.95l87.26,83.27c4.16,3.8,6.28,7.89,6.75,12.02h-46.01l-69.01-56.82Z"/>
    </g>
    <g>
      <path class="cls-1" d="M449.98,262.77l167.08,159.36c26.36,19.94,51.43,7.38,60.79-9.88,14.32-26.36-3.47-49.9-21.78-64.26l-118.43-109.77h-100.79c.55,8.39,4.75,16.77,13.13,24.55Z"/>
      <path class="cls-1" d="M657.19,123.21c13.22-12.35,36.13-36.43,14.05-65.5-12.85-16.94-42.45-17.94-57.6-5.47-43.34,35.48-163.66,157.34-163.66,157.34-7.63,7.41-12.02,15.47-13,23.61h99.96l120.26-109.99Z"/>
    </g>
  </g>
</svg>